<svg xmlns="http://www.w3.org/2000/svg" version="1.1" xmlns:xlink="http://www.w3.org/1999/xlink" xmlns:svgjs="http://svgjs.dev/svgjs" width="1000" height="126" viewBox="0 0 1000 126"><g transform="matrix(1,0,0,1,-0.6060606060606233,0.4472624306272479)"><svg viewBox="0 0 396 50" data-background-color="#ffffff" preserveAspectRatio="xMidYMid meet" height="126" width="1000" xmlns="http://www.w3.org/2000/svg" xmlns:xlink="http://www.w3.org/1999/xlink"><g id="tight-bounds" transform="matrix(1,0,0,1,0.2400000000000091,-0.17738953825517)"><svg viewBox="0 0 395.52 50.35486620151575" height="50.35486620151575" width="395.52"><g><svg viewBox="0 0 464.80443482893406 59.17568043507818" height="50.35486620151575" width="395.52"><g transform="matrix(1,0,0,1,69.28443482893405,8.178404459551327)"><svg viewBox="0 0 395.52 42.81887151597552" height="42.81887151597552" width="395.52"><g id="textblocktransform"><svg viewBox="0 0 395.52 42.81887151597552" height="42.81887151597552" width="395.52" id="textblock"><g><svg viewBox="0 0 395.52 42.81887151597552" height="42.81887151597552" width="395.52"><g transform="matrix(1,0,0,1,0,0)"><svg width="395.52" viewBox="3 -30.74 287.28 31.11" height="42.81887151597552" data-palette-color="#0066c0"><g class="wordmark-text-0" data-fill-palette-color="primary" id="text-0"><path d="M4.74 0Q3.83 0 3.42-0.42 3-0.83 3-1.73L3-1.73 3-28.66Q3-29.57 3.42-29.97 3.83-30.37 4.74-30.37L4.74-30.37 13.33-30.37Q18.6-30.37 21.09-28.33 23.58-26.29 23.58-22.71L23.58-22.71Q23.58-20.56 22.24-18.75 20.9-16.94 18.87-16.11L18.87-16.11 18.92-15.94Q20.63-15.6 21.96-14.55 23.29-13.5 24.04-11.99 24.78-10.47 24.78-8.81L24.78-8.81Q24.78-4.54 22.07-2.27 19.36 0 13.94 0L13.94 0 4.74 0ZM9.69-18.29L12.67-18.29Q14.58-18.29 15.64-19.2 16.7-20.12 16.7-21.53L16.7-21.53Q16.7-24.76 12.74-24.76L12.74-24.76 9.69-24.76 9.69-18.29ZM9.69-5.69L13.94-5.69Q15.82-5.69 16.87-6.6 17.92-7.52 17.92-9.2L17.92-9.2Q17.92-10.86 16.71-11.72 15.5-12.57 13.23-12.57L13.23-12.57 9.69-12.57 9.69-5.69ZM30.47 0Q29.56 0 29.15-0.42 28.73-0.83 28.73-1.73L28.73-1.73 28.73-29.08Q28.73-29.79 29.37-30.14 30-30.49 31.35-30.49L31.35-30.49 32.81-30.49Q34.15-30.49 34.79-30.14 35.42-29.79 35.42-29.08L35.42-29.08 35.42-5.69 45.09-5.69Q45.77-5.69 46.08-5.18 46.38-4.66 46.38-3.54L46.38-3.54 46.38-2.17Q46.38-1.03 46.08-0.51 45.77 0 45.09 0L45.09 0 30.47 0ZM62.18 0.37Q58.22 0.37 55.4-0.88 52.58-2.12 51.09-4.48 49.6-6.84 49.6-10.16L49.6-10.16 49.6-29.08Q49.6-29.79 50.24-30.14 50.87-30.49 52.22-30.49L52.22-30.49 53.68-30.49Q55.02-30.49 55.65-30.14 56.27-29.79 56.27-29.08L56.27-29.08 56.27-10.6Q56.27-9.08 57.01-7.89 57.76-6.69 59.1-6.02 60.44-5.35 62.18-5.35L62.18-5.35Q63.91-5.35 65.27-6.02 66.62-6.69 67.38-7.89 68.13-9.08 68.13-10.6L68.13-10.6 68.13-29.08Q68.13-29.79 68.76-30.14 69.38-30.49 70.72-30.49L70.72-30.49 72.16-30.49Q73.51-30.49 74.13-30.14 74.75-29.79 74.75-29.08L74.75-29.08 74.75-10.16Q74.75-6.84 73.26-4.48 71.77-2.12 68.95-0.88 66.13 0.37 62.18 0.37L62.18 0.37ZM82.37 0Q81.46 0 81.05-0.42 80.63-0.83 80.63-1.73L80.63-1.73 80.63-28.66Q80.63-29.57 81.05-29.97 81.46-30.37 82.37-30.37L82.37-30.37 98.26-30.37Q98.94-30.37 99.25-29.86 99.55-29.35 99.55-28.2L99.55-28.2 99.55-26.88Q99.55-25.73 99.25-25.22 98.94-24.71 98.26-24.71L98.26-24.71 87.32-24.71 87.32-18.41 97.09-18.41Q97.77-18.41 98.08-17.9 98.38-17.38 98.38-16.24L98.38-16.24 98.38-14.89Q98.38-13.75 98.08-13.23 97.77-12.72 97.09-12.72L97.09-12.72 87.32-12.72 87.32-5.69 98.28-5.69Q98.97-5.69 99.27-5.18 99.58-4.66 99.58-3.54L99.58-3.54 99.58-2.17Q99.58-1.03 99.27-0.51 98.97 0 98.28 0L98.28 0 82.37 0ZM107.58 0.07Q104.99 0.07 104.99-1.29L104.99-1.29 104.99-29.08Q104.99-29.79 105.62-30.14 106.24-30.49 107.58-30.49L107.58-30.49 109.12-30.49Q110.46-30.49 111.09-30.14 111.71-29.79 111.71-29.08L111.71-29.08 111.71-18.36 123.43-18.36 123.43-29.08Q123.43-29.79 124.06-30.14 124.7-30.49 126.04-30.49L126.04-30.49 127.55-30.49Q130.17-30.49 130.17-29.08L130.17-29.08 130.17-1.29Q130.17 0.07 127.55 0.07L127.55 0.07 126.04 0.07Q123.43 0.07 123.43-1.29L123.43-1.29 123.43-12.62 111.71-12.62 111.71-1.29Q111.71 0.07 109.12 0.07L109.12 0.07 107.58 0.07ZM149.01 0.37Q144.57 0.37 141.45-1.44 138.34-3.25 136.72-6.73 135.09-10.21 135.09-15.21L135.09-15.21Q135.09-20.19 136.72-23.67 138.34-27.15 141.45-28.94 144.57-30.74 149.01-30.74L149.01-30.74Q153.48-30.74 156.59-28.94 159.7-27.15 161.32-23.67 162.93-20.19 162.93-15.21L162.93-15.21Q162.93-10.21 161.32-6.73 159.7-3.25 156.59-1.44 153.48 0.37 149.01 0.37L149.01 0.37ZM149.01-5.35Q152.5-5.35 154.28-7.87 156.07-10.4 156.07-15.21L156.07-15.21Q156.07-20.02 154.28-22.51 152.5-25 149.01-25L149.01-25Q145.54-25 143.75-22.5 141.96-20 141.96-15.21L141.96-15.21Q141.96-10.4 143.76-7.87 145.57-5.35 149.01-5.35L149.01-5.35ZM170.49 0.07Q167.88 0.07 167.88-1.29L167.88-1.29 167.88-28.66Q167.88-29.57 168.3-29.97 168.71-30.37 169.61-30.37L169.61-30.37 178.09-30.37Q188.88-30.37 188.88-22.24L188.88-22.24Q188.88-19.78 187.5-17.99 186.12-16.21 183.8-15.33L183.8-15.33 183.8-15.16Q184.6-14.82 185.5-13.7 186.39-12.57 186.92-11.16L186.92-11.16 190.76-1.61Q190.95-1.03 190.95-0.78L190.95-0.78Q190.95 0.07 188.36 0.07L188.36 0.07 186.58 0.07Q184.41 0.07 184.07-0.83L184.07-0.83 180.62-9.3Q180.14-10.28 179.68-10.82 179.23-11.35 178.43-11.63 177.62-11.91 176.25-11.91L176.25-11.91 174.57-11.91 174.57-1.29Q174.57 0.07 171.96 0.07L171.96 0.07 170.49 0.07ZM174.57-17.68L178.67-17.68Q179.55-17.68 180.33-18.18 181.11-18.68 181.58-19.53 182.04-20.39 182.04-21.41L182.04-21.41Q182.04-22.92 181.05-23.82 180.06-24.71 178.38-24.71L178.38-24.71 174.57-24.71 174.57-17.68ZM196.71 0.12Q195.39 0.12 194.75-0.24 194.1-0.61 194.1-1.29L194.1-1.29 194.1-29.08Q194.1-30.52 196.71-30.52L196.71-30.52 198.22-30.52Q199.57-30.52 200.19-30.15 200.81-29.79 200.81-29.08L200.81-29.08 200.81-1.29Q200.81 0.12 198.22 0.12L198.22 0.12 196.71 0.12ZM206.5 0Q206.13 0 205.74-0.71 205.35-1.42 205.07-2.36 204.79-3.3 204.79-3.88L204.79-3.88Q204.79-4 204.86-4.3L204.86-4.3 219.41-24.71 207.35-24.71Q206.67-24.71 206.36-25.22 206.06-25.73 206.06-26.88L206.06-26.88 206.06-28.2Q206.06-29.35 206.36-29.86 206.67-30.37 207.35-30.37L207.35-30.37 227.2-30.37Q227.52-30.37 227.9-29.64 228.28-28.91 228.53-27.94 228.79-26.98 228.79-26.39L228.79-26.39Q228.79-26.12 228.74-26.05L228.74-26.05 214.24-5.69 227.49-5.69Q228.18-5.69 228.48-5.18 228.79-4.66 228.79-3.54L228.79-3.54 228.79-2.17Q228.79-1.03 228.48-0.51 228.18 0 227.49 0L227.49 0 206.5 0ZM246.22 0.37Q241.77 0.37 238.66-1.44 235.55-3.25 233.93-6.73 232.3-10.21 232.3-15.21L232.3-15.21Q232.3-20.19 233.93-23.67 235.55-27.15 238.66-28.94 241.77-30.74 246.22-30.74L246.22-30.74Q250.69-30.74 253.8-28.94 256.91-27.15 258.52-23.67 260.13-20.19 260.13-15.21L260.13-15.21Q260.13-10.21 258.52-6.73 256.91-3.25 253.8-1.44 250.69 0.37 246.22 0.37L246.22 0.37ZM246.22-5.35Q249.71-5.35 251.49-7.87 253.27-10.4 253.27-15.21L253.27-15.21Q253.27-20.02 251.49-22.51 249.71-25 246.22-25L246.22-25Q242.75-25 240.96-22.5 239.16-20 239.16-15.21L239.16-15.21Q239.16-10.4 240.97-7.87 242.78-5.35 246.22-5.35L246.22-5.35ZM267.7 0.07Q265.09 0.07 265.09-1.29L265.09-1.29 265.09-29.08Q265.09-29.79 265.72-30.14 266.36-30.49 267.7-30.49L267.7-30.49 269.56-30.49Q270.6-30.49 271.29-30.25 271.97-30 272.41-29.3L272.41-29.3 282.67-13.5 283.84-11.74 283.84-29.08Q283.84-29.79 284.47-30.14 285.11-30.49 286.45-30.49L286.45-30.49 287.69-30.49Q289.04-30.49 289.66-30.14 290.28-29.79 290.28-29.08L290.28-29.08 290.28-1.29Q290.28 0.07 287.69 0.07L287.69 0.07 286.03 0.07Q284.96 0.07 284.3-0.16 283.64-0.39 283.2-1.07L283.2-1.07 272.46-17.5 271.53-18.87 271.53-1.29Q271.53 0.07 268.94 0.07L268.94 0.07 267.7 0.07Z" fill="#0066c0" data-fill-palette-color="primary"></path></g></svg></g></svg></g></svg></g></svg></g><g><svg viewBox="0 0 59.17592691692861 59.17568043507818" height="59.17568043507818" width="59.17592691692861"><g><svg xmlns="http://www.w3.org/2000/svg" xmlns:xlink="http://www.w3.org/1999/xlink" version="1.0" x="0" y="0" viewBox="4.667731951646829 4.685959745359883 90.30503348557724 90.30465734357294" enable-background="new 0 0 100 100" xml:space="preserve" height="59.17568043507818" width="59.17592691692861" class="icon-icon-0" data-fill-palette-color="accent" id="icon-0"><path d="M17.504 35.743c-1.334 8.611 0.522 17.134 5.093 23.382 3.514 4.801 8.413 7.905 13.796 8.739 5.677 0.88 11.253-0.429 15.703-3.685 1.248-0.912 2.36-1.946 3.326-3.076-2.222 0.978-4.814 1.267-7.626 0.831-11.717-1.816-19.673-13.464-17.735-25.964 0.934-6.03 4.384-11.497 9.713-15.397 6.768-4.952 15.953-6.97 25.201-5.537 7.474 1.158 17.67 5.964 25.56 15.213 0 0-22.835-39.421-56.115-20.356C23.689 16.04 18.653 28.323 17.504 35.743z" fill="#4b91f1" data-fill-palette-color="accent"></path><path d="M82.544 65.256c1.659-8.555 0.125-17.141-4.207-23.557-3.331-4.931-8.109-8.217-13.457-9.253-5.639-1.094-11.261 0.004-15.83 3.091-1.282 0.863-2.431 1.854-3.44 2.947 2.257-0.894 4.859-1.084 7.652-0.543 11.64 2.257 19.151 14.196 16.744 26.616-1.161 5.989-4.815 11.324-10.288 15.019-6.949 4.692-16.205 6.364-25.393 4.582C26.902 82.719 16.894 77.532 9.358 67.992c0 0 21.331 40.255 55.307 22.457C75.621 84.712 81.115 72.628 82.544 65.256z" fill="#4b91f1" data-fill-palette-color="accent"></path><path d="M35.726 82.88c8.611 1.334 17.133-0.522 23.381-5.094 4.801-3.514 7.905-8.413 8.74-13.796 0.879-5.676-0.429-11.253-3.686-15.702-0.912-1.248-1.946-2.36-3.076-3.327 0.979 2.222 1.267 4.815 0.831 7.626-1.816 11.717-13.463 19.673-25.965 17.736-6.029-0.934-11.497-4.385-15.395-9.713-4.952-6.768-6.971-15.954-5.538-25.202 1.158-7.474 5.964-17.67 15.213-25.559 0 0-39.421 22.835-20.356 56.115C16.022 76.695 28.305 81.73 35.726 82.88z" fill="#4b91f1" data-fill-palette-color="accent"></path><path d="M90.432 35.718c-5.738-10.955-17.822-16.45-25.194-17.879-8.554-1.659-17.141-0.125-23.557 4.208-4.931 3.331-8.217 8.108-9.254 13.456-1.094 5.64 0.004 11.261 3.092 15.83 0.863 1.282 1.854 2.431 2.946 3.441-0.894-2.257-1.084-4.859-0.542-7.652 2.257-11.64 14.196-19.151 26.615-16.744 5.99 1.161 11.324 4.816 15.019 10.289 4.693 6.949 6.363 16.204 4.583 25.392-1.44 7.423-6.626 17.431-16.167 24.966C67.973 91.025 108.228 69.694 90.432 35.718z" fill="#4b91f1" data-fill-palette-color="accent"></path></svg></g></svg></g></svg></g><defs></defs></svg><rect width="395.52" height="50.35486620151575" fill="none" stroke="none" visibility="hidden"></rect></g></svg></g></svg>