<svg width="116" height="40" viewBox="0 0 116 40" fill="none" xmlns="http://www.w3.org/2000/svg">
<path d="M20 0C8.9543 0 0 8.9543 0 20C0 31.0457 8.9543 40 20 40C31.0457 40 40 31.0457 40 20C40 14.6957 37.8929 9.60859 34.1421 5.85786C30.3914 2.10714 25.3043 0 20 0Z" fill="white"/>
<path d="M8 25.32C7.78149 24.4574 7.61452 23.5825 7.5 22.7C7.60822 22.7288 7.71858 22.7489 7.83 22.76H8.14C8.37 23.23 9 23.44 10.55 23.76C11.1524 23.8931 11.7415 24.0805 12.31 24.32C12.8056 24.5226 13.3174 24.6832 13.84 24.8C13.84 24.97 13.89 25.14 13.92 25.32C13.9762 25.4925 13.9402 25.6818 13.8247 25.8217C13.7091 25.9616 13.53 26.0326 13.35 26.01H8.83C8.41191 26.0208 8.04956 25.7224 7.98 25.31L8 25.32ZM22.48 7.64002H17.48C16.9708 7.67112 16.526 7.99498 16.34 8.47002L15.2 12.35C15.1261 12.5512 15.1578 12.776 15.2845 12.9489C15.4111 13.1218 15.6159 13.2198 15.83 13.21H24.18C24.3924 13.2164 24.594 13.1169 24.7183 12.9446C24.8425 12.7722 24.8731 12.5495 24.8 12.35L23.62 8.47002C23.434 7.99498 22.9892 7.67112 22.48 7.64002ZM15.26 7.64002H12C11.5129 7.67368 11.0727 7.94229 10.82 8.36002C10.7 8.53002 10.6 8.71002 10.49 8.89002C10.5789 8.97765 10.6531 9.07893 10.71 9.19002L10.85 9.48002H11.1C11.58 9.48002 12.1 8.48002 12.1 8.48002C12.1 8.48002 13.18 9.80002 12.75 10.76C12.5261 11.331 11.992 11.7208 11.38 11.76H11.21C11.0884 11.8558 10.9578 11.9396 10.82 12.01C10.8128 12.4137 10.6876 12.8065 10.46 13.14H13.46C13.897 13.1132 14.2657 12.8052 14.37 12.38C14.698 10.9889 15.1223 9.62226 15.64 8.29002C15.64 8.29002 16.01 7.57002 15.26 7.57002V7.64002ZM33.26 7.57002H30.57C29.47 7.57002 29.99 8.26002 29.99 8.26002C30.9063 9.5119 31.6154 10.903 32.09 12.38C32.2028 12.8372 32.6193 13.1537 33.09 13.14H36.86C37.86 13.14 37.49 12.21 37.49 12.21C36.9247 10.7426 36.1018 9.38796 35.06 8.21002C34.5315 7.77901 33.8609 7.56141 33.18 7.60002L33.26 7.57002ZM31.18 13.94H26.65C26.47 13.9174 26.2909 13.9885 26.1753 14.1283C26.0598 14.2682 26.0238 14.4575 26.08 14.63C26.2914 15.8937 26.4217 17.1697 26.47 18.45C26.885 18.2497 27.3392 18.1439 27.8 18.14C28.1292 18.1927 28.4664 18.1252 28.75 17.95C28.8618 17.7593 29.0246 17.6034 29.22 17.5V17.37C29.4067 16.8381 29.8724 16.4532 30.43 16.37C30.5264 16.3602 30.6236 16.3602 30.72 16.37C31.1917 16.3907 31.6397 16.5827 31.98 16.91C32.133 17.0453 32.2932 17.1722 32.46 17.29C32.3587 16.4117 32.2051 15.5401 32 14.68C31.9388 14.2629 31.5712 13.9601 31.15 13.98L31.18 13.94ZM32 25.32C32.2205 24.4453 32.3809 23.5566 32.48 22.66C32.3031 21.9031 31.9188 21.2105 31.37 20.66L31.17 20.48C30.5604 20.3527 29.9277 20.3942 29.34 20.6C28.2398 21.1026 27.227 21.7778 26.34 22.6C26.34 22.9 26.34 23.2 26.26 23.5C27.0521 23.5912 27.8015 23.9069 28.42 24.41C29.3468 25.1501 30.443 25.6484 31.61 25.86C31.796 25.7313 31.9221 25.533 31.96 25.31L32 25.32ZM24.68 32.31H28C28.4881 32.2797 28.9298 32.0102 29.18 31.59C29.9782 30.4254 30.6488 29.1782 31.18 27.87C29.9571 27.7188 28.7559 27.4269 27.6 27H27.47C26.9104 27.1432 26.3372 27.227 25.76 27.25C25.7263 27.3206 25.6995 27.3943 25.68 27.47C25.344 28.8601 24.9164 30.2264 24.4 31.56C24.4 31.56 24.03 32.28 24.78 32.28L24.68 32.31ZM10.85 31.56C11.1027 31.9778 11.5429 32.2464 12.03 32.28H15.3C16.05 32.28 15.68 31.56 15.68 31.56C15.1623 30.2278 14.738 28.8612 14.41 27.47C14.3057 27.0448 13.937 26.7368 13.5 26.71H9.16C8.35 26.71 8.7 27.48 8.7 27.48C9.24431 28.9165 9.95231 30.2856 10.81 31.56H10.85ZM33.34 14C32.68 14 32.85 14.69 32.85 14.69C33.1168 15.7774 33.2973 16.8842 33.39 18L34.39 18.77C34.7002 19.0139 34.988 19.285 35.25 19.58H38.35C38.582 19.592 38.8069 19.4985 38.9622 19.3258C39.1175 19.153 39.1865 18.9194 39.15 18.69C39.0792 17.3863 38.8612 16.0947 38.5 14.84C38.3481 14.3209 37.8602 13.9736 37.32 14H33.34ZM13.34 14H9.64L9.47 14.11C9.01475 14.3468 8.51276 14.48 8 14.5C7.97088 14.5566 7.95065 14.6173 7.94 14.68C7.76357 15.4458 7.62672 16.2202 7.53 17V17.11C7.60519 17.443 7.76737 17.7501 8 18L8.23 18.26C8.34381 18.0815 8.48958 17.9256 8.66 17.8C8.54267 17.654 8.46055 17.4829 8.42 17.3C8.36708 17.0072 8.43176 16.7054 8.6 16.46L9.19 15.61C9.41963 15.2852 9.79219 15.0914 10.19 15.09C10.4072 15.0872 10.6213 15.1424 10.81 15.25L10.96 15.09C11.3211 14.7994 11.7773 14.6533 12.24 14.68C12.7129 14.6824 13.1811 14.774 13.62 14.95L13.84 15.06L13.9 14.67C13.9562 14.4975 13.9202 14.3082 13.8047 14.1683C13.6891 14.0285 13.51 13.9574 13.33 13.98L13.34 14ZM25.33 14.86C25.269 14.3551 24.8386 13.9763 24.33 13.98H15.67C15.1614 13.9763 14.731 14.3551 14.67 14.86L14.59 15.72C14.8342 16.0145 15.0177 16.3543 15.13 16.72C15.4062 16.6108 15.7046 16.5696 16 16.6C16.3043 16.6042 16.6056 16.6617 16.89 16.77C17.29 16.91 22.76 19.26 23.5 19.58H24.9C25.033 19.5788 25.1636 19.5444 25.28 19.48L25.34 19.41C25.4289 19.2965 25.5258 19.1896 25.63 19.09C25.6823 18.9631 25.7095 18.8273 25.71 18.69L25.33 14.86ZM30.87 13.21C31.68 13.21 31.33 12.44 31.33 12.44C30.7857 11.0035 30.0777 9.63447 29.22 8.36002C28.9621 7.92834 28.5026 7.65717 28 7.64002H24.74C23.99 7.64002 24.36 8.36002 24.36 8.36002C24.8764 9.69362 25.304 11.0599 25.64 12.45C25.7431 12.8719 26.1068 13.179 26.54 13.21H30.87ZM21.67 24.89C21.7565 25.0907 21.8267 25.2981 21.88 25.51C22.2351 25.2629 22.6573 25.1302 23.09 25.13C23.15 25.13 23.78 25.13 23.95 25.18C24.82 25.25 24.95 24.74 24.95 24.74C25.0609 24.4468 25.2234 24.1758 25.43 23.94L25.49 23.31C24.348 24.0971 23.0534 24.6353 21.69 24.89H21.67ZM15.69 26.02H17C16.86 25.83 16.74 25.67 16.67 25.56L16.31 25C15.76 25 15.19 24.94 14.69 24.9V25.1C14.751 25.605 15.1814 25.9837 15.69 25.98V26.02ZM17.54 32.32H22.54C23.0492 32.2889 23.494 31.9651 23.68 31.49L24.82 27.75C23.9324 28.3371 22.9469 28.7605 21.91 29C21.5811 29.0686 21.2459 29.1021 20.91 29.1C19.9795 29.1271 19.0892 28.7207 18.5 28L17.59 26.79H15.83C15.6159 26.7802 15.4111 26.8782 15.2845 27.0511C15.1578 27.224 15.1261 27.4488 15.2 27.65L16.38 31.53C16.566 32.0051 17.0108 32.3289 17.52 32.36L17.54 32.32ZM16.52 33.79C16.3614 33.3632 15.9732 33.0642 15.52 33.02H12.69C11.69 33.02 12.54 33.82 12.54 33.82C14.1236 35.7313 16.0801 37.2999 18.29 38.43C19.12 38.79 19.22 38.78 18.88 38.25C18.4 37.51 17.08 34.94 16.56 33.79H16.52ZM22.15 33H17.85C17.38 33 17.18 33.37 17.39 33.82C17.9305 35.1662 18.5516 36.4786 19.25 37.75C19.59 38.33 19.67 38.4 20 38.4C20.33 38.4 20.41 38.33 20.75 37.75C21.4529 36.4809 22.0742 35.1682 22.61 33.82C22.82 33.37 22.61 33 22.15 33ZM18.05 38.76C15.557 37.6135 13.3657 35.9015 11.65 33.76C11.229 33.2891 10.6315 33.0138 10 33H7.07C7.07 33 5.97 33 6.62 33.76C9.36973 36.4235 12.8515 38.2062 16.62 38.88C17.62 39.05 19.16 39.25 18.09 38.76H18.05ZM27.5 33.76C27.5 33.76 28.33 32.95 27.35 32.96H24.48C24.0268 33.0042 23.6386 33.3032 23.48 33.73C22.96 34.88 21.64 37.45 21.16 38.19C20.82 38.72 20.92 38.73 21.75 38.37C23.9599 37.2399 25.9164 35.6713 27.5 33.76ZM38.35 20.43H36C36.6969 21.2558 37.2974 22.1583 37.79 23.12L37.92 23.41C37.971 23.5302 37.9686 23.6664 37.9133 23.7847C37.8579 23.903 37.755 23.9922 37.63 24.03L37.33 24.12C37.0205 24.2527 36.7389 24.4427 36.5 24.68C36.1693 24.9982 35.7289 25.1772 35.27 25.18C34.9231 25.1742 34.5817 25.0922 34.27 24.94C34.0149 24.903 33.7577 24.8829 33.5 24.88H33C33 25.04 32.93 25.19 32.9 25.34C32.87 25.49 32.73 26.03 33.39 26.03H37.39C37.933 26.0552 38.4219 25.7031 38.57 25.18C38.9303 23.9251 39.1484 22.6337 39.22 21.33C39.2565 21.1006 39.1875 20.867 39.0322 20.6943C38.8769 20.5215 38.652 20.4281 38.42 20.44L38.35 20.43ZM6.79 32.36H9.43C10.53 32.36 10.01 31.67 10.01 31.67C9.09366 30.4181 8.38461 29.027 7.91 27.55C7.79718 27.0928 7.3807 26.7763 6.91 26.79H3.11C2.11 26.79 2.48 27.72 2.48 27.72C3.04527 29.1875 3.8682 30.5421 4.91 31.72C5.43848 32.151 6.10914 32.3686 6.79 32.33V32.36ZM32.93 33H30C29.3704 33.0191 28.7768 33.2978 28.36 33.77C26.6443 35.9115 24.453 37.6235 21.96 38.77C20.89 39.26 22.42 39.06 23.43 38.89C27.1985 38.2162 30.6803 36.4335 33.43 33.77C34 33 32.93 33 32.93 33ZM36.93 26.77H36.25C36.3504 26.9247 36.4027 27.1057 36.4 27.29C36.4 28.18 35.4 28.18 34.61 28.18C33.7107 28.1696 32.8127 28.1095 31.92 28C31.4655 29.3118 30.8184 30.5486 30 31.67C30 31.67 29.48 32.36 30.58 32.36H33.22C33.9009 32.3986 34.5715 32.181 35.1 31.75C36.1418 30.5721 36.9647 29.2175 37.53 27.75C37.53 27.75 37.9 26.82 36.9 26.82L36.93 26.77ZM23.44 6.21002C23.5986 6.63687 23.9868 6.93582 24.44 6.98002H27.27C28.27 6.98002 27.42 6.18002 27.42 6.18002C25.8364 4.26872 23.8799 2.70014 21.67 1.57002C20.84 1.21002 20.74 1.22002 21.08 1.75002C21.56 2.49002 22.88 5.06002 23.4 6.21002H23.44ZM6.66 26C7.32 26 7.15 25.31 7.15 25.31C6.9047 24.3002 6.73094 23.2743 6.63 22.24C6.07508 21.7802 5.71725 21.1254 5.63 20.41H1.65C1.41913 20.4018 1.19648 20.4963 1.04204 20.6681C0.887604 20.8399 0.817273 21.0713 0.85 21.3C0.921621 22.6037 1.13966 23.8951 1.5 25.15C1.6481 25.6731 2.13696 26.0252 2.68 26H6.66ZM17.85 7.00002H22.15C22.62 7.00002 22.82 6.63002 22.61 6.18002C22.0763 4.8309 21.455 3.5181 20.75 2.25002C20.41 1.67002 20.33 1.60002 20 1.60002C19.67 1.60002 19.59 1.67002 19.25 2.25002C18.5496 3.52042 17.9284 4.83292 17.39 6.18002C17.18 6.63002 17.39 7.00002 17.85 7.00002ZM22 1.22002C24.493 2.36653 26.6843 4.07852 28.4 6.22002C28.8056 6.68607 29.383 6.96755 30 7.00002H32.94C32.94 7.00002 34.05 7.00002 33.39 6.24002C30.6428 3.57299 27.1598 1.78973 23.39 1.12002C22.39 0.950021 20.85 0.750021 21.92 1.24002L22 1.22002ZM12.51 6.24002C12.51 6.24002 11.68 7.04002 12.66 7.04002H15.49C15.9432 6.99582 16.3314 6.69687 16.49 6.27002C17.01 5.12002 18.33 2.55002 18.81 1.81002C19.15 1.28002 19.05 1.27002 18.22 1.63002C16.0101 2.76014 14.0536 4.32872 12.47 6.24002H12.51ZM1.65 19.57H5.48C5.43175 19.066 5.26746 18.58 5 18.15C4.47 17.15 4.47 16.6 4.17 16.15L4 15.77C3.76547 15.259 3.76547 14.6711 4 14.16V14H2.68C2.13696 13.9748 1.6481 14.327 1.5 14.85C1.13883 16.1047 0.920774 17.3963 0.85 18.7C0.817273 18.9287 0.887604 19.1601 1.04204 19.332C1.19648 19.5038 1.41913 19.5983 1.65 19.59V19.57ZM7.07 7.00002H10C10.6296 6.9809 11.2232 6.70219 11.64 6.23002C13.3557 4.08852 15.547 2.37653 18.04 1.23002C19.11 0.740021 17.58 0.940021 16.57 1.11002C12.8002 1.77973 9.31722 3.56299 6.57 6.23002C6 7.00002 7.07 7.00002 7.07 7.00002ZM3.07 13.23H4.44V13.12C4.48774 12.7756 4.58193 12.4392 4.72 12.12L4.64 11.87C4.43137 11.1227 4.62432 10.3207 5.15 9.75002C5.5457 9.28666 6.13104 9.02897 6.74 9.05002C7.21 9.05002 7.74 9.35002 8.25 9.32002C8.33084 9.32259 8.41071 9.30175 8.48 9.26002C8.78212 8.86567 9.2353 8.61551 9.73 8.57002H9.79L10 8.33002C10 8.33002 10.52 7.64002 9.42 7.64002H6.79C6.10914 7.60141 5.43848 7.81901 4.91 8.25002C3.8682 9.42796 3.04527 10.7826 2.48 12.25C2.48 12.25 2.11 13.18 3.11 13.18L3.07 13.23Z" fill="#0072D3"/>
<path d="M4.61 15.41C4.45749 15.0941 4.45749 14.7259 4.61 14.41C4.84 13.86 5.09 13.83 5.2 13.2C5.24554 12.3085 5.90853 11.5705 6.79 11.43C8 11.21 8.91 13 10 11.86C10.0717 12.5286 9.69837 13.1657 9.08 13.43C8.38044 13.8285 7.53177 13.8657 6.8 13.53C6.47 13.4 5.87 12.88 5.67 13.53C5.47 14.18 6.67 13.96 6.45 15.05C5.83087 14.6644 5.02081 14.8066 4.57 15.38M8.51 11.14C8.836 10.903 9.08614 10.5764 9.23 10.2C9.53 9.51996 9.99 9.49996 9.99 9.49996C9.8 9.11996 9.39 9.35996 8.99 9.75996C8.59 10.16 7.86 9.99996 7.55 9.99996C6.93857 9.73524 6.22848 9.85686 5.74 10.31C5.38973 10.681 5.25055 11.2039 5.37 11.7C6.24745 10.9373 7.48654 10.7503 8.55 11.22M10.73 11.3C11.18 10.93 11.73 11.35 12.04 10.54C12.1728 10.2652 12.1728 9.94477 12.04 9.66996C11.57 10.38 11.25 10.33 10.54 10.24C9.83 10.15 9.77 10.46 9.43 10.92C9.28132 11.1567 9.07926 11.3554 8.84 11.5C9.24 11.86 10.27 11.66 10.73 11.3ZM5.51 15.42C5.12022 15.6599 4.94313 16.1339 5.08006 16.5707C5.21699 17.0074 5.63299 17.2955 6.09 17.27C6.56532 17.0877 6.80915 16.5601 6.64 16.08C6.50802 15.5873 6.00392 15.2929 5.51 15.42ZM6.3 20.24C6.38862 21.1145 7.03785 21.8286 7.9 22C8.58 22.06 8.96 21.74 8.9 20.88C8.84 20.02 7.9 19.1 7.39 18.46C7.07641 18.1107 6.86532 17.6816 6.78 17.22C6.50116 17.6452 5.95771 17.8095 5.49 17.61C6.01664 18.3764 6.28626 19.2904 6.26 20.22M9.57 18.22C9.21812 18.22 8.90088 18.4319 8.76622 18.757C8.63157 19.0821 8.706 19.4563 8.95482 19.7051C9.20364 19.954 9.57784 20.0284 9.90294 19.8937C10.228 19.7591 10.44 19.4418 10.44 19.09C10.44 18.6095 10.0505 18.22 9.57 18.22ZM11.79 18.53L12.3 17.65C12.4346 17.4166 12.3646 17.1188 12.14 16.97L10.43 15.9C10.2232 15.7776 9.95871 15.8196 9.8 16L9.22 16.84C9.16262 16.919 9.1398 17.0179 9.15677 17.1141C9.17374 17.2102 9.22905 17.2954 9.31 17.35L11.31 18.63C11.3963 18.6876 11.5028 18.7063 11.6036 18.6816C11.7044 18.6569 11.7902 18.591 11.84 18.5M10.7 19.88C10.5709 20.0016 10.4062 20.0788 10.23 20.1C11.51 20.53 10.8 20.1 12 20.02C13.1187 20.1358 14.1499 19.4042 14.41 18.31C14.8137 17.2838 14.3835 16.118 13.41 15.6C12.8218 15.304 12.1282 15.304 11.54 15.6C11.4484 15.6548 11.3976 15.7585 11.4106 15.8645C11.4236 15.9705 11.4978 16.0589 11.6 16.09C11.6 16.09 12.28 16.52 12.7 16.84C12.9452 17.0035 13.0413 17.3171 12.93 17.59C12.93 17.59 12.44 18.47 12.15 18.88C11.86 19.29 11.15 19.19 11.15 19.19L10.7 19.88ZM10.7 23C12.5 23.38 13.05 24 14.7 24.15C16.35 24.3 18.82 24.32 18.82 24.32C18.7372 23.6564 18.6938 22.9886 18.69 22.32C16.88 22.02 16.19 21.92 15.61 21.21C15.03 20.5 15.73 19.46 15.73 19.46C15.4464 19.1811 15.0676 19.0203 14.67 19.01C14.1416 19.8863 13.203 20.4329 12.18 20.46C11.911 20.3852 11.6225 20.4489 11.41 20.63C11.16 20.81 10.87 20.77 10.19 20.5C9.51 20.23 9.46 20.67 9.46 20.67C9.37 22.17 8.99 22.04 8.81 22.22C8.63 22.4 8.93 22.61 10.67 22.97M20.91 20.2C21.5958 20.7321 22.4878 20.9201 23.33 20.71C23.3979 20.6238 23.4169 20.5089 23.3804 20.4054C23.3439 20.302 23.2569 20.2244 23.15 20.2C23.15 20.2 16.95 17.54 16.56 17.4C16.1108 17.1842 15.5774 17.2465 15.19 17.56C14.9429 17.8305 14.8292 18.1971 14.88 18.56C15.93 18.75 16.18 19.27 16.18 19.27C17.8133 19.1573 19.4469 19.4854 20.91 20.22M19.14 22C19.14 22.29 19.29 24.83 19.29 24.83C19.6065 25.0362 19.997 25.0946 20.36 24.99C20.7539 23.6943 20.9363 22.3437 20.9 20.99C20.72 20.47 20.45 20.36 19.06 20.05C18.2012 19.8126 17.3099 19.7146 16.42 19.76C16.0281 19.9218 15.8211 20.353 15.94 20.76C16.06 21.3 16.82 21.56 16.82 21.56C17.5825 21.7736 18.3572 21.9405 19.14 22.06M20 26.76C20.2153 26.7437 20.4074 26.6183 20.5088 26.4276C20.6102 26.2369 20.6069 26.0076 20.5 25.82C20.2829 25.4499 19.8408 25.2764 19.43 25.4C19.1 25.5 19.03 25.92 19.03 25.92C18.84 26.63 19.53 26.82 20.03 26.76M21.47 21.09C21.4438 22.1488 21.286 23.2002 21 24.22C22.6711 24.0316 24.2535 23.3688 25.56 22.31C27.85 20.51 28.24 20.24 29.09 19.93C29.6598 19.7117 30.2743 19.6362 30.88 19.71C31.28 19.71 31.63 19.93 31.8 19.63C31.97 19.33 30.92 18.45 30.29 18.26C29.66 18.07 29.49 18.16 29.37 18.41C28.9715 18.79 28.4284 18.9795 27.88 18.93C27.1065 18.9192 26.3703 19.2616 25.88 19.86C24.7122 21.0454 22.9989 21.5148 21.39 21.09M32.39 19.51C32.52 19.92 31.89 20.13 31.89 20.13C33.39 21.44 33.54 24.13 33.54 24.13C33.8756 24.124 34.2109 24.1542 34.54 24.22C34.9855 24.5432 35.5976 24.5055 36 24.13C36.3152 23.8146 36.6935 23.5692 37.11 23.41C36.3007 21.8997 35.2502 20.5317 34 19.36C33.21 18.78 32.12 17.89 31.77 17.63C31.42 17.37 31.15 17.04 30.65 17.13C30.3654 17.1713 30.1249 17.3622 30.02 17.63C31.0029 17.9843 31.8472 18.6428 32.43 19.51M19 27.44C19.6348 28.2967 20.7509 28.6445 21.76 28.3C23.66 27.91 24.96 26.55 25.63 26.58C26.1801 26.5709 26.7272 26.4971 27.26 26.36C26.81 25.36 25.26 25.27 25.26 25.27C24.91 25.81 24.26 25.85 23.15 25.79C22.583 25.6956 22.016 25.9573 21.72 26.45C21.72 26.45 21.38 26.45 21.25 25.85C21.1931 25.5364 21.0221 25.255 20.77 25.06C20.6693 25.1223 20.6004 25.2253 20.5813 25.3422C20.5621 25.4592 20.5944 25.5787 20.67 25.67C20.8556 25.9527 20.8857 26.3101 20.75 26.62C20.5729 26.8888 20.2951 27.0752 19.9792 27.1373C19.6633 27.1994 19.3357 27.1319 19.07 26.95C18.19 26.41 18.81 25.12 18.81 25.12H17.29C17.29 25.12 18.79 27.2 19 27.43M27.74 26.3C30.37 27.42 35.62 27.63 35.62 27.3C35.62 26.97 35.3 27.06 35.3 27.06C30.55 26.88 28.83 25.66 28.01 25C27.4643 24.5805 26.8325 24.2868 26.16 24.14C25.7 24.2 25.51 24.77 25.51 24.77C26.4653 24.867 27.3056 25.4435 27.74 26.3Z" fill="#F23D4E"/>
<path d="M73.79 7.63989L82.25 32.3499H58.69L63.45 17.5899H69.62L66.75 26.4799H74L67.66 7.63989H73.79ZM94.87 7.63989H83.87V13.5099H91.56C93.8679 13.5295 95.9901 14.779 97.127 16.7875C98.264 18.7961 98.243 21.2586 97.072 23.2475C95.901 25.2364 93.7579 26.4495 91.45 26.4299H89.74V17.5899H83.87V32.3499H94.87C100.52 31.8399 104.59 26.0499 104.59 20.0199C104.59 13.9899 100.09 8.14989 94.87 7.63989ZM62 15.4299C61.889 11.1628 58.4475 7.73449 54.18 7.63989H45V13.5099H53.36C54.412 13.5261 55.2593 14.3779 55.27 15.4299C55.278 16.565 54.4023 17.5107 53.27 17.5899H45V32.3499H50.87V23.3499H54.18C58.4682 23.2123 61.897 19.7395 61.98 15.4499L62 15.4299ZM111.92 7.65989H106.05V32.3499H111.92V7.65989Z" fill="white"/>
<path fill-rule="evenodd" clip-rule="evenodd" d="M113.072 8.92288C113.072 8.28988 113.588 7.80688 114.203 7.80688C114.815 7.80688 115.328 8.28988 115.328 8.92288C115.328 9.56788 114.815 10.0509 114.203 10.0509C113.588 10.0509 113.072 9.56788 113.072 8.92288ZM113.276 8.92288C113.276 9.47188 113.678 9.88588 114.203 9.88588C114.722 9.88588 115.124 9.47188 115.124 8.92288C115.124 8.38588 114.722 7.97188 114.203 7.97188C113.678 7.97188 113.276 8.38588 113.276 8.92288ZM113.765 9.58288V8.27188H114.272C114.584 8.27188 114.731 8.39488 114.731 8.64688C114.731 8.88388 114.581 8.98288 114.386 9.00388L114.761 9.58288H114.542L114.185 9.01888H113.969V9.58288H113.765ZM113.969 8.43688V8.85388H114.182C114.362 8.85388 114.527 8.84488 114.527 8.63788C114.527 8.46388 114.377 8.43688 114.239 8.43688H113.969Z" fill="white"/>
</svg>
